{"title":"LEGi0N-5","uid":5708233,"size":1520859372,"categoryP":"other","categoryS":"other","magnet":"?xt=urn:btih:cfd7834c1be23b41b3e076ed840eef01792095a5&amp;dn=LEGi0N-5&amp;tr=udp%3A%2F%2Ftracker.openbittorrent.com%3A80&amp;tr=udp%3A%2F%2Fopen.demonii.com%3A1337&amp;tr=udp%3A%2F%2Ftracker.coppersurfer.tk%3A6969&amp;tr=udp%3A%2F%2Fexodus.desync.com%3A6969","seeders":0,"leechers":1,"uploader":"TvTeam","files":4,"time":1279782813,"description":". \n  &lt;a href=&quot;\nhttp://www.torrentday.com/&quot; rel=&quot;nofollow&quot; target=&quot;_NEW&quot;&gt;\nhttp://www.torrentday.com/&lt;/a&gt;        :     The Hottest Private Tracker On The Net!!!\n\n\n               www . TorrentDay . Com \n(((((((((((((= Enjoy No RAR releases =))))))))))))))))))))\n\n\n...................................NFO:....................................\n\n.[center][img]http://leetleech.org/images/90463135802222593550.png[/img]\n\n[title]Cocktail 1988 DVDRip XviD AC3-LEGi0N[/title][/center]\n\n[img]http://leetleech.org/images/48874973695367351744.png[/img]\n[color=red]General[/color]\nFormat: AVI\nFile size: 1.42 GiB\nDuration: 1h 44mn\nOverall bit rate: 1 946 Kbps\nIMDb Rating: 6.7/10   7,724 votes\nIMDb Link  : http://www.imdb.com/title/tt0780516/\nGenre: Crime | Drama | Thriller\nSource: RETAiL  \n\n[color=red]Video[/color]\nFormat : MPEG-4 Visual\nFormat profile : Advanced Simple@L5\nFormat settings, BVOP: Yes\nFormat settings, QPel: No\nFormat settings, GMC : No warppoints\nFormat settings, Matrix : Default (H.263)\nMuxing mode : Packed bitstream\nCodec ID : XVID\nCodec ID/Hint : XviD\nDuration : 1h 44mn\nBit rate : 1 493 Kbps\nWidth : 720 pixels\nHeight : 400 pixels\nDisplay aspect ratio : 16:9\nFrame rate : 25.000 fps\nColor space : YUV\nChroma subsampling : 4:2:0\nBit depth : 8 bits\nScan type : Progressive\nBits/(Pixel*Frame) : 0.207\nStream size : 1.09 GiB (77%)\n\n[color=red]Audio[/color]\nBit rate : 448 Kbps\nChannel(s) : 6 channels\nChannel positions : Front: L C R, Side: L R, LFE\nSampling rate : 48.0 KHz\nStream size : 334 MiB (23%)\n\n\n[img]http://leetleech.org/images/89524873606771859129.png[/img]\n\nAfter leaving the Army, Brian Flanagan tries to get a \nmarketing job in New York. But without a college degree, \nthis was not possible. \nHe then decides to start studying for a business degree at the \nlocal City College and gets a part time job as a bartender. \nHe realizes that its not that easy, but when his new boss Douglas Coughlin \nteaches him the secrets of the bar trade and they become \nthe most famous bartenders in town\n\n[img]http://leetleech.org/images/84434050717770922575.png[/img]\n\n\nDemi Moore... Laura Quinn\nMichael Caine... Mr. Hobbs\nLambert Wilson... Finch\nNathaniel Parker... Oliver 'Ollie' Ashtoncroft\nShaughan Seymour... Eaton\nNicholas Jones... Jameson\nDavid Barras... Fenton\nJoss Ackland... Sir Milton Kendrick Ashtoncroft\nSilas Carson... Reece\nDerren Nesbitt... Sir Clifton Sinclair\nRosalind March... Penelope\nKevan Willis... Lewis\nStanley Townsend... Henry\nJonathan Aris... J.M. Boyle\nBen Righton... Bryan\n\n[color=red]GREETZ[/color]\n\nNoir | Joshua08 | bigimac | LUSi |\n\nkempas | KaN1vE | mike160 | skillz |\n\nLungbuster | Sheikh | dillon1369 |\n\n0B5C3N3 | FLAWL3SS | AND ALL P2P!\n\n\n[img]http://leetleech.org/images/95521316153253938506.png[/img]\n\n[center][img]http://leetleech.org/images/20579889125631643445.png[/img]\n[img]http://leetleech.org/images/46360898086787382569.png[/img]\n[img]http://leetleech.org/images/95549970096433704305.png[/img]\n[img]http://leetleech.org/images/82865179982466556043.png[/img]","torrent":{"xt":"urn:btih:cfd7834c1be23b41b3e076ed840eef01792095a5","amp;dn":"LEGi0N-5","amp;tr":["udp%3A%2F%2Ftracker.openbittorrent.com%3A80","udp%3A%2F%2Fopen.demonii.com%3A1337","udp%3A%2F%2Ftracker.coppersurfer.tk%3A6969","udp%3A%2F%2Fexodus.desync.com%3A6969"],"infoHash":"cfd7834c1be23b41b3e076ed840eef01792095a5","infoHashBuffer":{"type":"Buffer","data":[207,215,131,76,27,226,59,65,179,224,118,237,132,14,239,1,121,32,149,165]},"announce":[],"urlList":[]}}